<?xml version="1.0" encoding="utf-8"?>
<!-- Generator: Adobe Illustrator 23.0.4, SVG Export Plug-In . SVG Version: 6.00 Build 0)  -->
<svg version="1.1" id="a3363411-88d6-4d9c-90ba-a0d76aee6716"
	 xmlns="http://www.w3.org/2000/svg" xmlns:xlink="http://www.w3.org/1999/xlink" x="0px" y="0px" viewBox="0 0 785 260.8"
	 style="enable-background:new 0 0 785 260.8;" xml:space="preserve">
<style type="text/css">
	.st0{fill:#3F3D56;}
	.st1{fill:#FFFFFF;}
	.st2{fill:#FF6584;}
</style>
<path class="st0" d="M469.2,26.9l-1.7-21.4c-0.5-1.5-2.2-2.3-3.7-1.8c-0.4,0.1-0.7,0.4-1,0.6l-21,19.6c-6.6-1.4-13.4-1.7-20.1-0.9
	l-0.5-21.1c-0.5-1.5-2.1-2.4-3.6-1.9c-0.4,0.1-0.8,0.3-1.1,0.6l-16.9,18.7c-30.3,16.2-41.7,53.9-25.4,84.2s53.9,41.7,84.2,25.4
	c30.3-16.2,41.7-53.9,25.4-84.2C480,38.1,475.1,32,469.2,26.9L469.2,26.9z"/>
<path class="st0" d="M477,113.7c22.9-0.4,51.7,79.9-2.6,80.3c-28.1,0.2-77.7,5.7-77.7,5.7s-38.6-57.9-21.4-94L477,113.7z"/>
<polyline class="st0" points="426.6,156.2 426.6,197.8 446.1,197.8 461.5,155.4 "/>
<path class="st1" d="M446.1,198.5h-19.5c-0.4,0-0.8-0.3-0.8-0.8v-41.6c0-0.4,0.3-0.8,0.8-0.8c0.4,0,0.8,0.3,0.8,0.8c0,0,0,0,0,0V197
	h18.2l15.2-41.9c0.1-0.4,0.6-0.6,1-0.5c0.4,0.1,0.6,0.6,0.5,1l0,0L446.8,198C446.7,198.3,446.4,198.5,446.1,198.5z"/>
<ellipse class="st0" cx="477.1" cy="195.2" rx="15.9" ry="5.3"/>
<path class="st1" d="M469.1,190.7c-0.3,0-0.6-0.2-0.7-0.5c-0.1-0.3-8.1-27.3,10.9-35.4c0.4-0.2,0.8,0,1,0.4c0.2,0.4,0,0.8-0.4,1
	c0,0,0,0,0,0c-17.8,7.6-10.2,33.3-10.1,33.6c0.1,0.4-0.1,0.8-0.5,0.9C469.2,190.7,469.2,190.7,469.1,190.7z"/>
<path class="st0" d="M496.1,183.7c-0.1-0.2-0.2-0.3-0.3-0.5c-0.8,0-1.7,0.1-2.5,0.1L496.1,183.7z"/>
<path class="st0" d="M578.7,159.7c-6.2-9.9-21.4-12.7-30.7-5.6c-4.2,3.2-7,7.8-10.6,11.7c-6,6.5-14.1,10.7-22.8,12.1
	c-6.1,0.9-12.5,0.4-18.2,2.9c-5.5,2.4-9.6,9.4-6.6,14.4c20.9-0.8,41.9-1.5,62.8-2.3c6-0.2,12.3-0.5,17.7-3.2
	C580.8,184.5,584.9,169.6,578.7,159.7z"/>
<path class="st1" d="M424.1,131c-8.6,0.1-17.1-1.6-25-5c-16.5-7.2-24.1-19.3-24.4-19.8c-0.2-0.4-0.1-0.8,0.3-1
	c0.4-0.2,0.8-0.1,1,0.2c6,8.5,14.2,15.2,23.8,19.2c14.9,6.4,40.3,9.7,76.8-11.5c0.4-0.2,0.8-0.1,1,0.3c0.2,0.4,0.1,0.8-0.3,1l0,0
	C455.9,126.8,438.2,131,424.1,131z"/>
<path class="st1" d="M427.4,92.5c-2.9,0-5.3-2.4-5.3-5.3c0-0.4,0.3-0.8,0.8-0.8c0.4,0,0.8,0.3,0.8,0.8c0,2.1,1.7,3.8,3.8,3.8
	c2.1,0,3.8-1.7,3.8-3.8c0-0.4,0.3-0.8,0.8-0.8c0.4,0,0.8,0.3,0.8,0.8C432.7,90.1,430.3,92.5,427.4,92.5z"/>
<path class="st1" d="M420.2,195.4c-0.3,0-0.6-0.2-0.7-0.5l-12.1-38c-0.1-0.4,0.1-0.8,0.5-1c0.4-0.1,0.8,0.1,1,0.5c0,0,0,0,0,0
	l12.1,38c0.1,0.4-0.1,0.8-0.5,1C420.3,195.3,420.3,195.4,420.2,195.4L420.2,195.4z"/>
<ellipse class="st0" cx="436.1" cy="200.5" rx="15.9" ry="5.3"/>
<ellipse class="st0" cx="410.3" cy="199.8" rx="15.9" ry="5.3"/>
<ellipse class="st1" cx="427.8" cy="77.7" rx="6.1" ry="2.3"/>
<path class="st1" d="M387,77.9c6.5-7.8,18.2-8.9,26.1-2.3c0.8,0.7,1.6,1.5,2.3,2.3c8.2-7.8,8.5-20.9,0.7-29.1
	c-7.8-8.2-20.9-8.5-29.1-0.7c-8.2,7.8-8.5,20.9-0.7,29.1C386.5,77.4,386.7,77.6,387,77.9z"/>
<path class="st1" d="M442.5,77.9c6.5-7.8,18.2-8.9,26.1-2.3c0.8,0.7,1.6,1.5,2.3,2.3c8.2-7.8,8.5-20.9,0.7-29.1s-20.9-8.5-29.1-0.7
	S434,69,441.8,77.2c0,0,0,0,0,0C442,77.4,442.2,77.6,442.5,77.9z"/>
<circle class="st0" cx="392.2" cy="65" r="7.1"/>
<circle class="st0" cx="447.7" cy="65" r="7.1"/>
<circle class="st2" cx="457.3" cy="86.6" r="6.2"/>
<circle class="st2" cx="401.3" cy="86.6" r="6.2"/>
</svg>
